<?xml version="1.0" standalone="no"?>
<!DOCTYPE svg PUBLIC "-//W3C//DTD SVG 20010904//EN"
 "http://www.w3.org/TR/2001/REC-SVG-20010904/DTD/svg10.dtd">
<svg version="1.0" xmlns="http://www.w3.org/2000/svg"
 width="400.000000pt" height="400.000000pt" viewBox="0 0 400.000000 400.000000"
 preserveAspectRatio="xMidYMid meet">
<metadata>
Created by potrace 1.11, written by Peter Selinger 2001-2013
</metadata>
<g transform="translate(0.000000,400.000000) scale(0.100000,-0.100000)"
fill="#000000" stroke="none">
<path d="M0 3076 c0 -685 3 -925 11 -928 9 -3 9 -9 0 -25 -8 -16 -11 -303 -11
-1072 l0 -1051 694 0 694 0 51 52 c28 29 56 68 62 85 8 24 16 32 32 30 16 -1
22 5 27 28 23 107 141 240 314 354 11 8 33 22 47 32 14 9 70 41 125 69 54 29
106 59 115 66 8 8 24 14 35 14 11 0 24 4 30 10 21 21 125 79 154 85 16 4 32
11 35 16 4 5 13 9 20 9 16 0 41 19 84 61 47 48 227 115 351 131 57 8 254 -38
277 -65 10 -11 12 -17 5 -13 -17 10 -62 -1 -62 -15 0 -6 8 -9 18 -8 48 4 70
-4 114 -46 26 -24 50 -56 54 -72 4 -15 24 -50 45 -77 43 -54 48 -70 20 -61
-14 4 -21 0 -27 -17 -10 -31 -5 -160 7 -174 5 -6 7 -13 4 -16 -3 -3 2 -24 10
-47 8 -24 12 -53 9 -65 -3 -12 -1 -34 5 -49 6 -14 6 -29 2 -31 -11 -7 -5 -123
6 -139 13 -16 15 -65 4 -72 -10 -6 -3 -44 12 -62 7 -10 83 -13 318 -13 l309 0
0 1716 0 1716 -72 -6 c-57 -6 -82 -3 -112 9 l-38 16 6 67 c4 37 12 107 18 156
10 71 10 90 0 94 -7 2 -18 10 -26 17 -7 8 -15 13 -17 12 -3 -1 2 4 10 11 8 6
23 12 33 12 19 0 19 2 41 113 l14 67 -539 0 c-520 0 -538 -1 -538 -19 0 -24
33 -37 145 -55 124 -20 326 -49 348 -50 27 -1 20 -26 -8 -26 -19 0 -26 -7 -31
-27 -11 -44 -22 -52 -62 -46 -46 7 -64 21 -57 43 10 31 -21 41 -134 47 -116 6
-141 -1 -141 -37 0 -10 -7 -31 -15 -46 -9 -17 -13 -41 -9 -59 3 -17 -1 -50
-10 -75 -8 -24 -13 -47 -10 -51 7 -12 -16 -54 -36 -64 -92 -49 -117 -56 -162
-52 -27 2 -48 1 -48 -3 0 -19 -35 -19 -54 -1 -12 11 -38 23 -59 26 -20 4 -41
14 -46 22 -7 13 -9 13 -14 -1 -4 -9 -9 -38 -13 -66 -6 -48 -6 -50 17 -50 34 0
99 -64 92 -90 -7 -25 -25 -27 -21 -1 4 23 -52 71 -84 71 -13 0 -34 10 -48 23
-14 13 -51 36 -83 52 l-59 30 7 44 c10 67 22 90 49 97 15 3 27 16 32 32 8 26
9 36 13 75 0 9 5 17 11 17 5 0 8 -6 5 -12 -8 -25 -13 -283 -6 -268 5 8 12 73
16 144 8 145 10 176 19 261 4 48 4 54 -4 28 -13 -41 -19 -44 -61 -33 -27 8
-38 18 -47 44 -12 32 -18 36 -70 46 -31 7 -67 16 -80 21 -13 5 -456 9 -1042 9
l-1020 0 0 -924z m1978 808 c-10 -10 -28 6 -28 24 0 15 1 15 17 -1 9 -9 14
-19 11 -23z m1416 -35 c19 -2 19 -2 -1 -6 -29 -5 -29 -9 -43 -223 -7 -96 -18
-220 -26 -274 -10 -70 -11 -101 -4 -106 6 -4 54 -12 108 -19 245 -31 291 -55
85 -44 -218 10 -205 11 -213 -17 -5 -14 -13 -59 -20 -100 -19 -123 -20 -126
-31 -109 -5 7 -7 32 -4 54 2 22 7 96 10 165 9 184 41 463 72 625 20 109 24
116 36 83 7 -17 19 -29 31 -29z m-1364 0 c0 -10 -4 -19 -9 -19 -12 0 -23 29
-15 41 8 14 24 0 24 -22z m1495 -8 c17 -1 18 -3 4 -11 -10 -6 -30 -5 -53 1
-20 5 -41 7 -46 4 -6 -3 -10 -1 -10 4 0 6 17 9 43 7 23 -2 51 -5 62 -5z
m-2068 -38 c-3 -10 -5 -4 -5 12 0 17 2 24 5 18 2 -7 2 -21 0 -30z m833 7 c0
-34 -95 -110 -137 -110 -29 0 -7 35 37 58 25 13 51 32 60 43 16 20 40 26 40 9z
m-843 -152 c-3 -8 -6 -5 -6 6 -1 11 2 17 5 13 3 -3 4 -12 1 -19z m489 -79 c3
-6 1 -16 -5 -22 -9 -9 -14 -8 -21 3 -9 15 -4 30 10 30 5 0 12 -5 16 -11z
m-483 -28 c2 -10 1 -25 -4 -32 -6 -10 -9 -4 -9 19 0 36 5 42 13 13z m267 -26
c0 -19 -4 -35 -10 -35 -11 0 -13 30 -4 54 10 25 14 19 14 -19z m1473 -136 l-2
-127 24 -6 c18 -5 25 -13 25 -31 0 -22 -4 -25 -39 -25 -22 0 -129 11 -238 24
-109 13 -247 27 -308 31 -87 5 -115 11 -138 27 -51 37 -19 41 150 19 88 -11
210 -23 270 -27 124 -8 123 -9 123 82 0 43 26 141 42 162 6 6 19 12 30 12 10
0 21 7 25 15 4 13 8 12 22 -7 13 -19 16 -46 14 -149z m-806 99 c-3 -7 -5 -2
-5 12 0 14 2 19 5 13 2 -7 2 -19 0 -25z m-1452 -11 c32 -24 9 -40 -48 -33 -53
6 -74 17 -63 35 10 16 89 14 111 -2z m895 9 c0 -2 -18 -6 -39 -8 -22 -2 -37 0
-35 4 5 8 74 11 74 4z m-232 -55 c3 -8 -1 -12 -9 -9 -7 2 -15 10 -17 17 -3 8
1 12 9 9 7 -2 15 -10 17 -17z m252 9 c-8 -5 -19 -10 -25 -10 -5 0 -3 5 5 10 8
5 20 10 25 10 6 0 3 -5 -5 -10z m770 -241 l0 -31 -29 24 c-38 29 -38 35 -1 36
27 1 30 -2 30 -29z m280 -24 c0 -8 -7 -15 -15 -15 -8 0 -15 7 -15 15 0 8 7 15
15 15 8 0 15 -7 15 -15z m259 -1 c11 -3 11 -7 1 -19 -15 -18 -40 -19 -75 -3
-63 28 -3 47 74 22z m629 -281 c2 -8 -5 -13 -17 -13 -12 0 -21 6 -21 16 0 18
31 15 38 -3z m-1805 -14 c13 -12 13 -16 0 -36 -16 -23 -73 -33 -73 -13 0 6 -7
10 -15 10 -8 0 -15 -4 -15 -10 0 -5 -5 -10 -11 -10 -5 0 -8 4 -4 9 3 6 -11 13
-32 17 -21 4 -44 12 -52 18 -8 6 -24 9 -37 8 -13 -2 -24 1 -24 7 0 13 38 17
151 15 67 -1 101 -6 112 -15z m780 -73 c9 -7 17 -18 17 -25 0 -14 -49 -34 -67
-27 -26 10 -8 67 22 66 5 0 18 -7 28 -14z m-2411 -64 c10 -16 20 -48 24 -70
l7 -42 -36 0 c-38 0 -47 12 -47 63 0 77 23 98 52 49z m1059 -18 c-25 -32 -27
-24 -4 19 9 18 18 26 20 20 3 -7 -5 -25 -16 -39z m159 11 c17 -20 -7 -20 -34
0 -19 15 -19 15 1 15 11 0 26 -7 33 -15z m-525 -5 c-3 -5 0 -8 7 -6 44 14 77
15 72 2 -7 -17 -48 -36 -79 -36 -14 0 -25 -4 -25 -10 0 -5 -4 -10 -10 -10 -17
0 -11 42 8 56 20 16 36 18 27 4z m148 -19 c-9 -12 -24 -21 -33 -21 -10 1 -5 9
15 25 34 28 44 26 18 -4z m280 -18 c-7 -2 -21 -2 -30 0 -10 3 -4 5 12 5 17 0
24 -2 18 -5z m1327 -3 c0 -5 -4 -10 -10 -10 -5 0 -10 5 -10 10 0 6 5 10 10 10
6 0 10 -4 10 -10z m-1253 -16 c-3 -3 -12 -4 -19 -1 -8 3 -5 6 6 6 11 1 17 -2
13 -5z m-1388 -44 c19 -9 21 -14 10 -21 -11 -7 -9 -12 11 -26 48 -33 95 -81
87 -89 -4 -4 -20 4 -35 18 -34 33 -145 98 -166 98 -9 0 -16 2 -16 4 0 2 -3 11
-6 19 -10 28 61 26 115 -3z m1102 7 c-8 -8 -14 -7 -23 2 -10 11 -10 13 0 7 6
-4 12 -2 12 4 0 6 5 8 11 4 8 -4 8 -9 0 -17z m-84 7 c-3 -3 -12 -4 -19 -1 -8
3 -5 6 6 6 11 1 17 -2 13 -5z m231 -22 c2 -14 -2 -22 -12 -22 -19 0 -29 17
-22 36 8 22 30 12 34 -14z m395 4 c4 -9 -4 -15 -23 -18 -26 -4 -29 1 -21 30 3
9 40 -1 44 -12z m144 -22 c-3 -3 -12 -4 -19 -1 -8 3 -5 6 6 6 11 1 17 -2 13
-5z m-176 -85 c-2 -8 -5 -23 -6 -34 -3 -23 -54 -146 -67 -160 -5 -6 -15 -5
-27 2 -10 7 -35 10 -54 7 -38 -4 -51 5 -41 30 7 17 34 22 34 6 0 -5 5 -10 10
-10 6 0 10 7 10 15 0 8 7 15 15 15 12 0 13 4 6 18 -8 15 -4 24 17 43 15 14 39
40 54 58 27 32 57 38 49 10z m-256 1 c12 -2 -34 -18 -56 -19 -9 -1 -19 5 -22
12 -4 11 34 14 78 7z m-100 -27 c22 -3 45 -10 51 -14 6 -5 45 -13 85 -18 l74
-9 -90 3 c-52 2 -111 10 -140 20 -54 19 -89 43 -45 31 14 -4 43 -10 65 -13z
m43 -73 c10 -17 10 -20 -5 -17 -18 2 -23 8 -23 27 0 16 14 11 28 -10z m2337
10 c3 -5 1 -10 -4 -10 -6 0 -11 5 -11 10 0 6 2 10 4 10 3 0 8 -4 11 -10z
m-2282 -7 c-7 -2 -21 -2 -30 0 -10 3 -4 5 12 5 17 0 24 -2 18 -5z m1147 -59
c0 -8 -4 -12 -10 -9 -5 3 -10 13 -10 21 0 8 5 12 10 9 6 -3 10 -13 10 -21z
m-608 -15 l43 -13 -35 -5 c-19 -4 -36 -3 -38 1 -2 5 -13 8 -25 9 -13 0 -16 3
-8 6 11 5 11 7 0 15 -11 8 -10 9 3 4 9 -2 36 -10 60 -17z m-971 -119 c28 -15
24 -33 -6 -26 -19 5 -23 3 -19 -9 9 -23 -28 -19 -49 5 -10 12 -15 25 -12 30 8
13 61 13 86 0z m-762 -104 c9 -11 9 -16 1 -21 -13 -8 -60 13 -60 27 0 14 47 9
59 -6z m1339 -58 c17 -17 15 -28 -6 -28 -19 0 -42 18 -42 32 0 12 35 9 48 -4z
m66 -24 c9 -3 16 -10 16 -16 0 -14 -43 -5 -48 10 -4 13 7 15 32 6z m-50 -75
c-12 -19 -74 -6 -74 16 0 10 9 11 40 3 22 -6 37 -14 34 -19z m2266 -35 c0 -11
-5 -14 -16 -10 -9 3 -20 6 -25 6 -5 0 -9 5 -9 10 0 6 11 10 25 10 16 0 25 -6
25 -16z m-3007 -84 c39 -12 42 -30 4 -30 -13 0 -47 -9 -77 -19 -30 -11 -58
-17 -62 -15 -5 3 -8 -1 -8 -8 0 -7 -8 -18 -17 -24 -23 -14 -110 -17 -117 -5
-4 5 -24 12 -47 16 -22 4 -38 12 -36 18 8 26 77 69 123 77 59 11 184 5 237
-10z m2954 -12 c-3 -8 -6 -5 -6 6 -1 11 2 17 5 13 3 -3 4 -12 1 -19z m-2977
-52 c0 -2 -7 -7 -16 -10 -8 -3 -12 -2 -9 4 6 10 25 14 25 6z m-104 -61 c-9 -9
-16 -13 -16 -8 0 12 22 34 28 28 2 -2 -3 -11 -12 -20z m42 0 c-3 -3 -9 2 -12
12 -6 14 -5 15 5 6 7 -7 10 -15 7 -18z m-3 -23 c-3 -3 -11 0 -18 7 -9 10 -8
11 6 5 10 -3 15 -9 12 -12z m3042 -14 c-3 -8 -6 -5 -6 6 -1 11 2 17 5 13 3 -3
4 -12 1 -19z m-3112 2 c-3 -5 -14 -10 -24 -10 -9 0 -23 -6 -30 -12 -11 -11
-11 -9 -2 10 8 14 21 22 37 22 14 0 22 -4 19 -10z m303 -32 c-7 -7 -22 -20
-33 -28 -15 -10 -14 -7 4 13 14 15 29 27 33 27 5 0 3 -6 -4 -12z m1407 -46
c-3 -3 -16 5 -28 17 l-22 23 28 -17 c15 -10 25 -20 22 -23z m-1708 12 c-3 -3
-12 -4 -19 -1 -8 3 -5 6 6 6 11 1 17 -2 13 -5z m793 -207 c-17 -56 -44 -142
-60 -192 -17 -49 -30 -105 -30 -123 0 -33 24 -92 38 -92 4 0 8 28 9 63 2 52
30 164 60 237 3 8 5 33 5 55 -1 30 0 35 7 20 8 -19 9 -19 14 5 3 14 4 0 2 -30
-4 -52 -3 -53 9 -25 l12 30 7 -34 c15 -72 28 -111 38 -111 16 0 48 -42 49 -62
0 -25 -13 -22 -25 5 -6 12 -14 20 -18 17 -5 -3 -15 11 -23 30 -12 27 -17 32
-24 20 -8 -13 -10 -13 -10 -1 0 8 -3 11 -6 8 -10 -10 47 -88 59 -80 6 3 7 1 3
-5 -10 -16 22 -67 50 -82 24 -13 18 -16 97 54 28 25 51 35 87 39 83 10 95 19
210 155 34 41 80 86 101 102 51 36 198 90 248 90 23 0 48 8 64 20 30 24 32 24
49 7 21 -21 150 -104 191 -123 37 -18 40 -18 52 -1 11 16 13 16 19 1 3 -8 6
-31 6 -49 0 -33 14 -55 83 -130 16 -16 38 -43 50 -60 l22 -30 -33 27 c-19 15
-65 37 -104 49 -86 26 -156 22 -270 -18 -43 -15 -81 -23 -85 -19 -4 4 -1 11 7
16 8 6 10 10 4 10 -5 0 -23 -14 -39 -30 -32 -34 -47 -37 -65 -15 -14 16 -55
21 -45 5 6 -9 -87 -60 -110 -60 -7 0 -20 -9 -30 -20 -10 -11 -26 -20 -36 -20
-10 0 -20 -4 -24 -9 -3 -5 -29 -17 -58 -27 -28 -9 -58 -22 -66 -28 -11 -8 -15
-8 -18 0 -2 7 -34 -17 -71 -53 -37 -35 -79 -71 -94 -79 -15 -7 -33 -22 -40
-32 -12 -16 -62 -52 -72 -52 -12 0 37 68 84 119 27 30 48 56 46 59 -10 10 -96
-65 -147 -128 -33 -41 -44 -58 -89 -138 -8 -15 -43 -55 -77 -89 l-61 -61 -44
13 c-36 10 -48 10 -70 -1 -41 -21 -34 -36 15 -34 74 4 79 3 67 -20 -6 -12 -23
-26 -38 -32 -43 -19 -152 -90 -152 -100 0 -4 12 -5 26 -2 24 6 25 5 15 -14 -6
-12 -16 -24 -21 -27 -12 -7 -53 -83 -56 -103 -5 -29 -12 -21 -24 26 -6 28 -20
59 -31 70 -10 12 -19 25 -19 31 0 5 -14 14 -30 20 -44 15 -53 48 -39 140 10
68 9 83 -9 142 -18 58 -20 79 -12 157 5 55 4 107 -1 134 -12 52 4 189 30 258
28 74 106 186 153 220 24 18 81 50 128 72 47 22 94 48 105 58 11 10 34 24 50
33 l30 15 3 -44 c2 -29 -8 -81 -28 -147z m2359 40 c1 -10 -3 -16 -7 -13 -5 3
-9 20 -9 38 -1 27 1 29 7 13 5 -11 9 -28 9 -38z m-832 -142 c-5 -83 -43 -195
-63 -188 -20 7 23 244 47 259 5 3 10 15 10 27 1 20 2 20 6 2 3 -10 3 -55 0
-100z m323 100 c7 -8 19 -15 26 -15 8 0 14 -4 14 -10 0 -5 17 -12 38 -15 61
-11 102 -26 102 -38 -1 -7 -7 -23 -15 -37 -13 -24 -11 -27 27 -66 24 -25 40
-51 40 -65 0 -35 -37 -168 -51 -182 -9 -9 -30 -8 -89 5 -67 14 -79 14 -94 1
-14 -13 -21 -11 -57 11 -22 14 -49 26 -60 26 -11 0 -23 5 -26 10 -4 7 -13 7
-26 0 -33 -18 -37 -3 -19 82 28 131 66 222 114 268 45 44 57 48 76 25z m550
-94 c0 -6 -4 -13 -10 -16 -5 -3 -10 1 -10 9 0 9 5 16 10 16 6 0 10 -4 10 -9z
m-60 -168 c0 -21 -20 -15 -61 18 -55 43 -49 56 11 22 27 -15 50 -34 50 -40z
m-71 -145 c1 -5 -21 -8 -49 -8 l-50 0 0 38 c0 21 3 42 7 45 6 7 90 -62 92 -75z
m-1804 -37 c-3 -6 -11 -11 -17 -11 -6 0 -6 6 2 15 14 17 26 13 15 -4z m1802
-35 c9 -9 -7 -56 -19 -56 -20 0 -78 42 -78 56 0 12 10 14 46 10 25 -3 48 -7
51 -10z m-1327 -16 c0 -6 -25 -21 -56 -35 -64 -29 -64 -28 -64 -15 0 6 6 10
14 10 8 0 28 11 43 25 29 25 63 33 63 15z"/>
<path d="M1601 1284 c0 -11 3 -14 6 -6 3 7 2 16 -1 19 -3 4 -6 -2 -5 -13z"/>
<path d="M1582 719 c-44 -23 -49 -29 -32 -34 13 -4 29 1 46 14 15 12 33 21 40
21 8 0 14 7 14 15 0 19 -4 18 -68 -16z"/>
<path d="M1505 640 c3 -5 11 -10 16 -10 6 0 7 5 4 10 -3 6 -11 10 -16 10 -6 0
-7 -4 -4 -10z"/>
<path d="M3114 871 c4 -5 31 -15 62 -21 31 -7 63 -21 75 -33 20 -21 21 -21 17
-2 -1 11 -19 27 -38 36 -42 20 -124 34 -116 20z"/>
<path d="M2402 144 c-7 -27 -13 -55 -14 -61 -2 -17 -13 -16 -28 2 -7 8 -24 14
-39 14 -14 -1 -34 2 -43 6 -26 10 -24 -27 2 -50 11 -10 20 -26 20 -37 0 -26
66 -26 75 1 3 10 14 21 25 24 22 6 37 81 23 123 -9 26 -9 25 -21 -22z"/>
<path d="M2543 116 c-40 -40 -84 -83 -99 -95 l-27 -21 36 0 c29 0 42 8 76 46
23 26 41 52 41 59 0 7 11 24 25 40 15 15 25 31 23 36 -2 6 -36 -24 -75 -65z"/>
</g>
</svg>
