<svg xmlns="http://www.w3.org/2000/svg" viewBox="0 0 294.42 250.65"><defs><style>.cls-1{fill:none}.cls-2{clip-path:url(#clip-path)}.cls-3{clip-path:url(#clip-path-2)}.cls-4{fill:#d33e2a}.cls-5{fill:#404040}</style><clipPath id="clip-path" transform="translate(-.77 -1.71)"><path class="cls-1" d="M0 0h296.65v255.02H0z"/></clipPath><clipPath id="clip-path-2" transform="translate(-.77 -1.71)"><path class="cls-1" d="M0 0h296.65v255.02H0z"/></clipPath></defs><title>MFR_Icon_Color</title><g id="Layer_2" data-name="Layer 2"><g id="Icons"><g id="MFR_Icon_Color"><g class="cls-2" id="MFR_Icon_Color-2" data-name="MFR_Icon_Color"><g class="cls-3"><path class="cls-4" d="M294.59 202.92l-62.44-11.73 7.8 12.22-63.28 10.87a12.15 12.15 0 0 1-4.89-1.2c-6.06-3.15-8.27-6.16-11-13.73-3.72-10.26 5.58-14.36 5.73-14.5s8-5.83 10.65-13.75a4.88 4.88 0 0 1 .82-1.48 9.66 9.66 0 0 1 1-.92l.47-.45c5.72-4.47 11.66-8.66 17.25-13.27 7.59-6.24 14.9-12.86 18.19-22.53 6.78-19.95 12.51-45.39 6.76-65.4l-5.54-20.85c6.15 1.52 5.2-10.62 3.7-13.19-2.27-3.9-8.14-6.47-11.71-7.49 9.08-1.08 13.33-6.89 13.33-6.89l-18.07-1.27c1.66-3.94 9.12-15.65 9.12-15.65-6.48.37-9.28 2.29-12.71 5.23-1.28 1.09-4.58.56-5.06.28-5.58-3.23-9 1.35-10.79 1.41l-15.37-6.28a46.17 46.17 0 0 0 2.69 11.42L160 9.17a45.78 45.78 0 0 0 2.82 11.7l-11.68-4.77s2.07 23.4 14 18.13c.57-.25 1-.5 1.51-.75h.07l.17-.1c.31-.17.57-.34.84-.51 2.14-1.36 6-4.07 6-4.07s1.25 1.33-.59 3.6c-3.4 4.2-2.75 6.51 2.42 8.79-4.59 11.26-19 37.66-20.95 48.43-1.82 9.85-7.31 15.85-16.43 19-3.29 1.14-6.71 1.93-10 3-4.8 1.58-8.53-.67-9.07-5.55a25.07 25.07 0 0 0-.48-2.58c-2.93-12.94-9.29-24.14-17.11-34.7-11.82-16-28-23.17-47.41-24.08-.53 0-33-1.64-44.11 15.23 0 0-12.6 17-8.33 38.58 2.52-6 4.85-11.72 7.36-17.4 3.46-7.85 8.23-15.33 11.56-16.3C13.5 74 11.77 87.9 15.07 94.65c2.45-5.57 5.07-13.83 7.71-19.28 5.19-10.73 12-10.77 13.3-10.54C41.5 65.78 44 71 45.84 74l-10.77 2.42S34.13 85.91 46.78 90l-7.44 1.68s-.94 9.51 11.66 13.66l-6.91 1.56s-.93 9.29 11.27 13.5l-6.48 1.47s-.93 9.37 11.45 13.55l-6.66 1.51S52.42 148.67 70 151.74a11.33 11.33 0 0 0 4.62 0c8.6 17.55 14.21 19.3 16.84 21.24 0 0 13.91 6.09 18.61 9 7.23 4.45 11 5.36 19.17 4.64 2.09 5.93 1.23 13.2.12 18.46-1.13 3-2.33 5.57-3.7 5.56s-3.4 1.59-3.53 2.62c-.1.78 3.64-1.12 5.28 0 .41.29.37 1.1.29 1.61-.52 3.29-1.51 5.39-5.29 5.88-1.93.25-4.69 2.41-5.65 3.78L72 232.27l-8.9-7.4-37.32 6.39L30.9 241l-5.78 11.4 39.62-3.87.1-.15v.15l8.13-9.6 169.3-20.35-4.93 15.65zm-134.94 13.51a15.55 15.55 0 0 0-2.06 1.13l-12.22 2.1c-7.28.09-17.89 4.77-11.71-16 1-3.48 3.8-10.24 9-13 1.57-.85 7-5.18 7.24-4.83-1.45 4.55.81 9.21 3.64 12.6 4.9 5.87 6.1 7.45 6.1 7.52-.37.73-2.66.78-3.58 1.56a3.42 3.42 0 0 0-1.19 1.79c.16.39 4.45-1 5.91.27a7.89 7.89 0 0 1 2.3 3.34c.23 1.44-1.58 2.75-3.45 3.61" transform="translate(-.77 -1.71)"/><path class="cls-5" d="M282.93 225.7a6.12 6.12 0 1 1 12.25 0 6.12 6.12 0 1 1-12.25 0m11.55 0a5.42 5.42 0 1 0-10.84 0 5.42 5.42 0 1 0 10.84 0m-7.82-3.24h2.82c1.37 0 2.39.67 2.39 2a1.88 1.88 0 0 1-1.44 1.9l1.65 2.36h-1.44l-1.48-2.15h-1.3v2.15h-1.2zm2.71 3.1c.81 0 1.27-.42 1.27-1s-.46-1-1.27-1h-1.51v2z" transform="translate(-.77 -1.71)"/></g></g></g></g></g></svg>