<svg xmlns="http://www.w3.org/2000/svg" width="32" height="32" viewBox="0 0 32 32"><title>React.js</title><path fill="#00d8ff" d="M16.014 5.3l.014-.016c.666-.64 1.37-1.24 2.124-1.774.296-.21.6-.41.914-.6.272-.16.55-.31.834-.448.22-.1.44-.2.666-.28.2-.08.41-.14.62-.2.32-.08.644-.16.974-.18h.364c.094 0 .188 0 .28.02.2.02.4.06.594.12.16.06.32.12.48.2.1.06.18.12.28.18.16.12.3.24.42.38.1.14.22.26.3.4.2.32.36.66.48 1 .04.1.06.2.1.32.04.14.06.28.1.42.04.18.06.36.1.54l.06.68c.02.28.02.58.02.88 0 .38-.02.76-.06 1.14-.06.48-.12.94-.2 1.4-.06.28-.1.56-.16.84l-.12.48.26.08c.48.14.94.3 1.42.48.36.14.74.3 1.1.48.32.16.64.32.94.5.34.2.66.4.96.64.26.2.52.42.76.64.18.18.34.36.5.56.12.16.24.34.34.52.14.26.24.52.32.8.04.16.06.34.06.52 0 .1 0 .22-.02.34-.02.18-.06.38-.12.56-.04.18-.12.34-.2.5-.18.34-.4.66-.66.96-.08.1-.16.18-.24.26-.12.12-.22.22-.34.32-.14.12-.3.26-.46.36-.2.16-.4.3-.6.42-.26.18-.54.34-.82.48-.36.18-.7.36-1.06.52s-.72.3-1.1.44c-.32.12-.64.22-.96.32l-.1.04c.04.16.08.32.1.48.04.24.1.48.14.72.08.48.16.98.2 1.46.02.38.04.76.04 1.12 0 .3-.02.6-.04.88-.02.24-.04.46-.08.7-.04.18-.06.38-.1.56l-.12.44c-.08.24-.18.5-.28.74-.1.18-.2.38-.32.56s-.26.34-.42.5c-.18.18-.38.32-.58.44-.16.08-.34.16-.5.2-.28.08-.56.12-.84.136-.38.012-.76-.04-1.14-.12a5.48 5.48 0 0 1-.68-.2c-.26-.08-.5-.188-.74-.3-.3-.132-.58-.28-.86-.44-.32-.18-.64-.38-.94-.6-.78-.54-1.52-1.16-2.2-1.82l-.16.14c-.32.3-.64.58-.96.86-.34.26-.68.52-1.04.78-.32.22-.64.42-.98.62-.32.18-.66.34-.98.48-.24.1-.48.2-.72.28-.24.072-.46.14-.7.18-.38.08-.74.12-1.12.112-.3 0-.6-.04-.88-.14-.18-.048-.36-.12-.52-.22-.12-.06-.22-.14-.32-.22-.08-.06-.14-.12-.2-.18a.467.467 0 0 1-.14-.14c-.28-.3-.5-.64-.66-1.02l-.06-.18c-.02-.08-.06-.16-.08-.22-.04-.1-.06-.22-.1-.32-.04-.14-.06-.26-.1-.4-.04-.18-.08-.348-.1-.526-.02-.22-.06-.46-.06-.68-.02-.3-.02-.58-.02-.88 0-.38.02-.76.06-1.12.04-.48.12-.94.2-1.42l.24-1.14-.4-.12c-.48-.146-.94-.32-1.4-.5a9.68 9.68 0 0 1-.94-.42c-.28-.14-.56-.28-.84-.46a9.03 9.03 0 0 1-1.016-.66c-.26-.2-.52-.42-.78-.66C1.12 18.4.94 18.2.78 18a4.881 4.881 0 0 1-.38-.564c-.1-.18-.18-.372-.252-.568-.02-.088-.048-.18-.068-.268a2.34 2.34 0 0 1-.08-.564c0-.12.004-.24.016-.356.012-.088.026-.18.046-.266L.12 15.2c.128-.42.35-.812.62-1.16a4.865 4.865 0 0 1 .51-.578l.34-.3c.15-.12.3-.24.456-.36.2-.14.408-.28.62-.42.26-.16.532-.32.808-.46.352-.18.712-.34 1.08-.5.66-.28 1.336-.5 2.024-.7l.16-.04c-.1-.42-.2-.84-.28-1.26-.08-.44-.16-.9-.2-1.36-.04-.36-.06-.72-.08-1.1-.02-.28 0-.58 0-.88 0-.22.02-.44.06-.66.02-.18.04-.36.08-.54.02-.14.06-.28.1-.42.02-.1.06-.22.1-.32l.08-.2c.02-.06.04-.12.08-.18.16-.36.36-.72.64-1.02.06-.06.12-.12.2-.18.06-.06.12-.1.18-.16.08-.06.18-.12.28-.18.16-.08.32-.16.5-.2.2-.06.4-.1.6-.12.06 0 .12-.02.18-.02h.3l.22.02c.32.04.64.1.96.18.2.06.42.12.62.2.22.08.42.18.64.28.32.16.62.32.92.5.32.2.64.4.96.62.36.26.72.54 1.08.84.28.24.54.48.82.72l.18.18zm8.014 16.396a30.52 30.52 0 0 1-4.086.646c-.08.02-.16.02-.24.04-.36.54-.76 1.08-1.16 1.58-.42.56-.86 1.1-1.32 1.6l-.2.22c.6.58 1.22 1.12 1.9 1.6.28.2.56.38.84.56.24.16.5.28.76.42.22.1.44.2.68.28.18.06.36.12.56.16.16.04.32.08.48.08.14.02.28.02.4.02.2 0 .42-.04.6-.12l.16-.08c.12-.06.22-.16.3-.26.12-.14.22-.3.32-.46.04-.04.06-.1.1-.16l.1-.24c.04-.1.08-.2.1-.32.04-.14.08-.26.1-.4.04-.18.06-.36.1-.54s.04-.38.06-.58c.02-.44.02-.88-.02-1.32-.02-.42-.08-.86-.14-1.28-.06-.34-.12-.7-.2-1.04l-.08-.34zm-15.986.06l-.12.58c-.14.664-.24 1.336-.3 2.014-.04.448-.04.9-.04 1.348.02.18.02.38.04.58.02.18.06.34.08.52.02.12.06.26.08.38.04.1.06.2.1.3.04.08.06.16.1.24l.1.18c.02.04.04.08.08.12l.06.1.06.08c.12.16.24.3.42.4l.12.06c.1.04.18.08.28.1.14.02.26.04.4.04s.28 0 .4-.02c.16-.02.32-.06.48-.08.2-.04.38-.1.56-.16a8.587 8.587 0 0 0 1.48-.7c.3-.18.6-.38.9-.58.3-.22.6-.44.88-.68.18-.14.34-.28.52-.44.14-.14.3-.26.44-.4l.06-.06-.34-.38c-.46-.52-.9-1.06-1.34-1.6-.36-.46-.72-.94-1.06-1.42h-.12a51.8 51.8 0 0 1-1.84-.2c-.56-.08-1.12-.18-1.68-.28l-.66-.14zm9.9.724c-.6.028-1.22.04-1.84.044-.58 0-1.16-.008-1.76-.03l-.2-.006.42.524c.4.492.8.972 1.22 1.44.1.114.2.228.32.34l.16-.18c.42-.474.82-.966 1.22-1.47.16-.2.34-.42.5-.66zm1-11.524c-.62-.048-1.26-.08-1.9-.096-.3-.008-.6-.012-.92-.014h-.14c-.3 0-.58.004-.88.012-.66 0-1.32.04-1.98.08-.38.56-.74 1.12-1.1 1.7-.4.66-.78 1.34-1.14 2.02-.22.42-.44.86-.66 1.3.24.48.48.96.74 1.42.38.7.78 1.38 1.18 2.06.34.52.68 1.06 1.02 1.56l1.2.06c.58.02 1.14.02 1.72.02.98 0 1.96-.04 2.92-.1.34-.5.66-1.02.98-1.52.7-1.16 1.36-2.34 1.94-3.56-.2-.42-.4-.82-.62-1.22-.28-.54-.58-1.06-.88-1.56-.42-.72-.86-1.44-1.34-2.14l-.08-.12zm-9.48 6.66c-.14.36-.3.732-.44 1.1-.22.57-.42 1.144-.6 1.72.34.08.7.144 1.04.204.5.088 1.02.16 1.52.224.14.02.28.034.42.048-.22-.346-.44-.696-.64-1.048-.44-.736-.86-1.488-1.26-2.25zm13.14-.052c-.2.394-.42.78-.62 1.17-.24.432-.48.86-.74 1.288-.16.3-.34.58-.52.88l.3-.04c.5-.06 1-.14 1.48-.22.4-.06.82-.14 1.22-.24-.16-.54-.36-1.08-.58-1.62-.14-.4-.32-.8-.48-1.18zm-15.48-5.6l-.44.132a15.593 15.593 0 0 0-2.28.896c-.3.146-.58.304-.88.48-.24.15-.5.316-.72.496-.18.132-.34.272-.5.424-.14.126-.26.26-.38.4-.08.11-.16.22-.24.34-.06.1-.12.2-.16.308-.06.146-.1.3-.1.46v.12c0 .176.06.352.12.514l.04.086.06.104.08.14.12.17.16.192c.06.08.14.156.2.23.1.092.18.18.28.268.12.1.22.194.34.286.16.12.32.24.48.352.2.14.4.28.62.4.28.16.56.3.84.44.34.16.7.32 1.04.46.32.12.62.24.92.32l.46.14.42-1.26c.26-.7.52-1.38.82-2.06l.36-.76-.34-.76c-.3-.68-.58-1.4-.84-2.1-.14-.38-.28-.78-.4-1.18zm17.82.02c-.1.344-.22.686-.34 1.026a21.22 21.22 0 0 1-.84 2.12l-.38.85.48 1.04c.3.65.56 1.308.8 1.974.14.344.26.692.36 1.04l.24-.072c.28-.08.54-.16.8-.26.54-.18 1.06-.4 1.56-.66.32-.14.62-.32.9-.5.26-.14.5-.32.74-.5.18-.12.34-.26.5-.42.14-.12.28-.28.4-.42.1-.1.18-.22.26-.34.06-.1.12-.2.16-.3.08-.14.12-.3.12-.48.02-.04.02-.08 0-.14 0-.1-.02-.22-.06-.32-.04-.14-.1-.26-.18-.38l-.06-.12-.1-.14c-.04-.06-.1-.12-.14-.18-.06-.06-.12-.14-.2-.22s-.18-.16-.26-.24c-.12-.1-.24-.2-.38-.3-.14-.12-.3-.22-.44-.32-.2-.14-.4-.26-.62-.38-.26-.14-.54-.28-.82-.4-.32-.16-.66-.28-1-.42-.46-.18-.94-.32-1.42-.46zM16 13.118a2.859 2.859 0 0 0 0 5.716 2.858 2.858 0 1 0 0-5.714zm4.672-1.978c.352.548.69 1.108 1.016 1.674.3.524.596 1.054.88 1.59.17-.404.334-.812.49-1.224.18-.506.36-1.016.52-1.532-.34-.08-.68-.15-1.04-.214-.64-.12-1.26-.216-1.9-.296zm-9.34-.006a30.936 30.936 0 0 0-2.33.38c-.18.036-.38.076-.56.12.18.55.36 1.096.56 1.634.14.38.3.76.46 1.134.36-.68.74-1.38 1.14-2.04.26-.4.5-.82.76-1.22zm12.626-.804l.06-.266c.08-.348.14-.696.2-1.048.08-.456.12-.92.16-1.38.02-.45.04-.904.02-1.356-.02-.204-.02-.41-.06-.612-.02-.18-.06-.354-.08-.528-.04-.136-.06-.27-.1-.4-.04-.1-.06-.2-.1-.3L24 4.208l-.074-.156c-.026-.048-.05-.096-.08-.14a.85.85 0 0 0-.07-.116c-.02-.026-.036-.054-.054-.08-.1-.16-.26-.3-.42-.4a.5.5 0 0 0-.16-.08c-.14-.06-.3-.088-.46-.1-.04 0-.08 0-.12-.004h-.04c-.04 0-.08 0-.14.006-.12 0-.24.02-.36.04-.14.02-.3.06-.44.1l-.54.18c-.2.08-.4.18-.62.28-.26.12-.5.28-.76.42-.26.16-.54.34-.8.54-.64.46-1.24.98-1.82 1.54l.26.28c.52.56 1 1.14 1.46 1.74.34.42.66.88.98 1.32l.82.08c.6.06 1.2.16 1.8.26.56.08 1.12.2 1.66.32zM15.06 6.274c-.03-.026-.06-.052-.086-.08-.26-.24-.524-.48-.8-.708-.3-.254-.614-.5-.936-.73-.3-.204-.58-.396-.88-.576-.26-.156-.54-.3-.8-.434-.2-.094-.4-.18-.6-.26a7.574 7.574 0 0 0-.56-.18c-.14-.04-.28-.068-.42-.094-.14-.02-.26-.036-.38-.044l-.14-.004h-.02c-.04 0-.08 0-.12.004-.2.01-.4.046-.58.124a1.15 1.15 0 0 0-.48.362c-.12.14-.22.294-.3.456l-.08.168c-.04.06-.06.14-.08.22-.04.1-.08.18-.1.28-.02.12-.06.26-.08.38-.02.16-.06.32-.08.5s-.04.38-.04.58c-.02.44 0 .88.02 1.32.04.68.16 1.36.3 2.04.04.22.1.44.14.66.2-.06.42-.1.62-.14.48-.1.98-.2 1.48-.26.54-.1 1.1-.16 1.64-.22l.5-.06c.32-.46.66-.9 1-1.34.44-.56.9-1.12 1.38-1.64l.36-.4zm.956.976l-.326.36c-.428.48-.84.972-1.236 1.476l-.34.44a38.418 38.418 0 0 1 1.7-.046h.232a41.481 41.481 0 0 1 1.852.044l-.32-.4c-.42-.544-.86-1.076-1.32-1.588L16 7.25z"/></svg>