<svg xmlns="http://www.w3.org/2000/svg" width="256" height="256" viewBox="0 0 256 256"><path d="M192.081 137.957c-6.211.033-11.59 1.524-16.1 3.747-1.649-3.292-3.318-6.188-3.599-8.341-.327-2.514-.706-4.013-.312-7.007.396-2.995 2.128-7.234 2.103-7.552-.025-.318-.389-1.843-3.971-1.869s-6.646.689-7.007 1.635c-.361.946-1.051 3.075-1.479 5.294-.628 3.249-7.152 14.833-10.857 20.894-1.212-2.365-2.242-4.451-2.457-6.101-.327-2.514-.706-4.013-.312-7.008.396-2.993 2.128-7.234 2.103-7.552-.024-.318-.388-1.843-3.971-1.869-3.582-.026-6.646.689-7.007 1.635-.361.946-.746 3.157-1.479 5.294-.734 2.139-9.407 21.463-11.679 26.473a152.353 152.353 0 0 1-2.876 6.003l-.004-.008-.119.25c-.609 1.192-.971 1.852-.971 1.852l.011.024c-.483.875-1 1.688-1.256 1.688-.179 0-.538-2.33.078-5.528 1.291-6.703 4.391-17.158 4.36-17.518-.016-.185.576-2.006-2.024-2.959-2.528-.926-3.429.618-3.659.623-.224.005-.39.545-.39.545s2.816-11.757-5.372-11.757c-5.12 0-12.213 5.601-15.708 10.677a4510.003 4510.003 0 0 0-17.678 9.692 25.028 25.028 0 0 0-.383-.42c-9.929-10.594-28.285-18.087-27.506-32.329.283-5.178 2.083-18.811 35.271-35.348 27.186-13.547 48.949-9.819 52.71-1.557 5.373 11.803-11.632 33.74-39.864 36.905-10.757 1.206-16.421-2.963-17.83-4.516-1.483-1.635-1.704-1.708-2.258-1.402-.902.5-.331 1.943 0 2.803.843 2.194 4.302 6.084 10.199 8.02 5.188 1.702 17.817 2.638 33.09-3.27 17.106-6.617 30.464-25.023 26.54-40.409-3.989-15.648-29.935-20.792-54.491-12.068-14.614 5.192-30.435 13.341-41.81 23.98-13.525 12.651-15.682 23.662-14.793 28.263 3.158 16.347 25.69 26.993 34.712 34.882l-1.243.687c-4.523 2.237-21.699 11.226-25.996 20.723-4.873 10.773.776 18.502 4.516 19.543 11.587 3.225 23.478-2.575 29.868-12.106 6.389-9.529 5.609-21.938 2.677-27.602-.037-.07-.077-.139-.114-.209 1.168-.691 2.359-1.395 3.54-2.088a233.872 233.872 0 0 1 6.523-3.68c-1.097 3.007-1.901 6.61-2.319 11.816-.491 6.115 2.015 14.019 5.294 17.129 1.444 1.369 3.181 1.401 4.282 1.401 3.816 0 5.558-3.175 7.475-6.93 2.352-4.604 4.438-9.966 4.438-9.966s-2.619 14.481 4.516 14.481c2.6 0 5.214-3.371 6.379-5.09l.005.029s.068-.112.2-.337c.27-.412.423-.675.423-.675l.014-.075c1.045-1.813 3.362-5.95 6.838-12.772 4.491-8.812 8.798-19.854 8.798-19.854s.401 2.699 1.713 7.163c.772 2.626 2.412 5.529 3.707 8.313a95.635 95.635 0 0 1-1.683 2.275l.018.043a84.535 84.535 0 0 1-2.742 3.461c-3.544 4.221-7.766 9.041-8.331 10.433-.666 1.64-.509 2.845.778 3.815.94.708 2.614.818 4.36.7 3.185-.214 5.426-1.004 6.531-1.485a21.942 21.942 0 0 0 5.615-2.952c3.477-2.557 5.573-6.213 5.372-11.057-.111-2.669-.963-5.314-2.04-7.812.315-.454.632-.912.949-1.375 5.481-8.013 9.732-16.818 9.732-16.818s.401 2.699 1.714 7.164c.664 2.259 1.974 4.724 3.152 7.141-5.153 4.188-8.35 9.054-9.46 12.246-2.052 5.903-.444 8.578 2.57 9.187 1.365.276 3.294-.35 4.744-.964 1.805-.598 3.975-1.595 6-3.084 3.477-2.557 6.819-6.136 6.618-10.979-.092-2.205-.69-4.394-1.502-6.496 4.369-1.819 10.025-2.831 17.229-1.99 15.455 1.805 18.486 11.455 17.907 15.494-.579 4.038-3.821 6.259-4.905 6.93-1.084.67-1.414.902-1.323 1.401.132.725.633.696 1.557.541 1.272-.215 8.116-3.285 8.409-10.741.374-9.458-8.694-19.855-24.758-19.77M72.954 178.119c-5.119 5.585-12.271 7.695-15.338 5.918-3.312-1.921-2-10.143 4.282-16.068 3.829-3.612 8.772-6.938 12.051-8.987.746-.449 1.843-1.109 3.175-1.907.221-.126.346-.195.346-.195l-.005-.009.793-.475c2.286 8.435.07 15.862-5.304 21.723zm37.295-25.353c-1.783 4.347-5.515 15.468-7.786 14.871-1.95-.511-3.137-8.965-.39-17.284 1.383-4.188 4.337-9.192 6.073-11.135 2.794-3.125 5.871-4.147 6.618-2.88.953 1.614-3.397 13.703-4.515 16.428zm30.812 14.702c-.756.395-1.449.644-1.771.452-.236-.142.312-.662.312-.662s3.854-4.146 5.372-6.034c.883-1.098 1.906-2.4 3.022-3.858.009.146.014.29.014.433-.011 4.967-4.81 8.32-6.949 9.669zm23.736-5.411c-.563-.401-.47-1.698 1.385-5.738.728-1.586 2.389-4.256 5.276-6.808.334 1.05.538 2.056.532 2.992-.037 6.25-4.496 8.584-7.193 9.554z"/></svg>